PathFileType	4	(X/Y/Z)	C:/Users/Carlo/Dropbox/Carlos/SARAH/CongressoMarcha2025/WorkshopOpenSim/C3D/Caso01/Walking 02.c3d.trc
DataRate	CameraRate	NumFrames	NumMarkers	Units	OrigDataRate	OrigDataStartFrame	OrigNumFrames
100.000000	100.000000	4	85	mm	100.000000	318	364
Frame#	Time	PELO			PELA			PELL			PELP			LFEO			LFEA			LFEL			LFEP			LTIO			LTIA			LTIL			LTIP			LFOO			LFOA			LFOL			LFOP			LTOO			LTOA			LTOL			LTOP			RFEO			RFEA			RFEL			RFEP			RTIO			RTIA			RTIL			RTIP			RFOO			RFOA			RFOL			RFOP			RTOO			RTOA			RTOL			RTOP			LASI			RASI			RPSI			LTHI			LKNE			LTIB			LANK			LHEE			LTOE			RTHI			RKNE			RTIB			RANK			RHEE			RTOE			LPSI			LHipAngles			LKneeAngles			LAbsAnkleAngle			LAnkleAngles			RHipAngles			RKneeAngles			RAnkleAngles			RAbsAnkleAngle			LPelvisAngles			RPelvisAngles			LFootProgressAngles			RFootProgressAngles			LHipPower			LKneePower			LAnklePower			RHipPower			RKneePower			RAnklePower			LGroundReactionForce			LNormalisedGRF			LAnkleForce			RAnkleForce			RKneeForce			LKneeForce			RHipForce			LHipForce			LGroundReactionMoment			LAnkleMoment			RAnkleMoment			RKneeMoment			LKneeMoment			RHipMoment			LHipMoment			
		X1	Y1	Z1	X2	Y2	Z2	X3	Y3	Z3	X4	Y4	Z4	X5	Y5	Z5	X6	Y6	Z6	X7	Y7	Z7	X8	Y8	Z8	X9	Y9	Z9	X10	Y10	Z10	X11	Y11	Z11	X12	Y12	Z12	X13	Y13	Z13	X14	Y14	Z14	X15	Y15	Z15	X16	Y16	Z16	X17	Y17	Z17	X18	Y18	Z18	X19	Y19	Z19	X20	Y20	Z20	X21	Y21	Z21	X22	Y22	Z22	X23	Y23	Z23	X24	Y24	Z24	X25	Y25	Z25	X26	Y26	Z26	X27	Y27	Z27	X28	Y28	Z28	X29	Y29	Z29	X30	Y30	Z30	X31	Y31	Z31	X32	Y32	Z32	X33	Y33	Z33	X34	Y34	Z34	X35	Y35	Z35	X36	Y36	Z36	X37	Y37	Z37	X38	Y38	Z38	X39	Y39	Z39	X40	Y40	Z40	X41	Y41	Z41	X42	Y42	Z42	X43	Y43	Z43	X44	Y44	Z44	X45	Y45	Z45	X46	Y46	Z46	X47	Y47	Z47	X48	Y48	Z48	X49	Y49	Z49	X50	Y50	Z50	X51	Y51	Z51	X52	Y52	Z52	X53	Y53	Z53	X54	Y54	Z54	X55	Y55	Z55	X56	Y56	Z56	X57	Y57	Z57	X58	Y58	Z58	X59	Y59	Z59	X60	Y60	Z60	X61	Y61	Z61	X62	Y62	Z62	X63	Y63	Z63	X64	Y64	Z64	X65	Y65	Z65	X66	Y66	Z66	X67	Y67	Z67	X68	Y68	Z68	X69	Y69	Z69	X70	Y70	Z70	X71	Y71	Z71	X72	Y72	Z72	X73	Y73	Z73	X74	Y74	Z74	X75	Y75	Z75	X76	Y76	Z76	X77	Y77	Z77	X78	Y78	Z78	X79	Y79	Z79	X80	Y80	Z80	X81	Y81	Z81	X82	Y82	Z82	X83	Y83	Z83	X84	Y84	Z84	X85	Y85	Z85	

319	3.18	154.9446258544922	911.3432617187505	-2704.799072265626	139.8510742187501	913.8124389648442	-2832.815185546876	27.26519012451173	901.387329101563	-2689.937255859376	145.3436431884766	1039.860961914063	-2701.188232421876	26.84093856811525	475.569519042969	-2680.958496093751	-33.47829437255861	468.0647583007815	-3112.593017578127	-400.0501403808596	541.4761962890627	-2622.447998046876	91.09625244140628	906.3862304687505	-2697.428466796876	41.15891265869142	264.3972778320314	-2289.701660156251	60.75885009765628	-108.4116210937501	-2491.634277343751	-382.6058654785157	240.658660888672	-2287.006591796876	27.4977493286133	465.8852539062502	-2663.015625000001	31.34794998168947	116.4767227172852	-2337.962646484376	27.79471015930177	202.7856750488282	-2537.836669921876	-186.2873840332032	109.7366333007813	-2337.004150390626	25.54088020324708	316.2687072753907	-2251.585937500001	33.2836380004883	49.87940597534183	-2366.754882812501	32.09914016723634	78.64907836914065	-2433.379638671876	-39.26146697998048	47.63269042968751	-2366.435302734376	31.34796524047853	116.4767456054688	-2337.962646484376	207.0619354248048	524.0725097656252	-2867.433349609376	154.1324005126954	679.536804199219	-3256.169921875002	-211.4446563720704	515.404968261719	-2813.916748046876	218.7929534912111	916.299926757813	-2712.170166015626	194.8388061523439	85.58990478515628	-2827.766601562501	158.1251220703126	48.86999130249026	-3244.990722656252	-223.8353881835939	100.4751129150391	-2792.235351562501	206.5068969726564	504.1615905761721	-2865.631835937501	214.0493469238282	72.2561950683594	-2981.751464843751	214.8761749267579	289.7788085937501	-2980.482421875001	-3.357620239257814	73.12456512451175	-2988.948242187501	206.8477020263673	71.01528930664065	-2764.346435546876	216.4499053955079	72.66981506347659	-3054.219726562501	216.725555419922	145.1773376464844	-3053.796875000001	143.9808959960938	72.95931243896487	-3056.618652343751	214.0493469238282	72.25626373291018	-2981.751464843751	35.59212493896486	1000.686279296875	-2736.475830078126	248.8044738769532	1017.311645507813	-2761.293701171876	219.7786102294923	1006.231994628907	-2559.279296875001	-43.96751785278322	698.0979003906252	-2674.932373046876	-29.96120071411134	484.3390197753909	-2673.173095703126	-30.56601715087892	356.1798400878907	-2466.112792968751	-4.268949031829836	261.8524780273439	-2289.412841796876	42.06986618041994	304.8602905273439	-2228.956542968751	41.77675247192384	96.36602020263678	-2319.093994140626	333.4833374023439	784.550170898438	-2780.475585937501	263.5895996093751	525.2432250976565	-2874.661621093751	275.209442138672	364.7025146484376	-2859.403564453126	241.1431884765626	83.94363403320315	-2831.696289062501	190.919418334961	55.07614517211917	-2758.587890625001	205.0382843017579	52.72211074829104	-2984.792480468751	106.6973037719727	1003.987182617188	-2549.740234375001	-13.10065650939942	-1.425166249275208	-2.305972337722779	-0.8459272384643559	13.99988555908204	60.14997100830081	0	0	-5.021548271179201	0.6708853244781496	-1.27047348022461	-5.022792816162111	3.261366605758669	-0.5981977581977846	20.56958389282227	3.404842615127565	-2.150237560272218	26.55302810668947	1.852887153625489	-6.732069015502933	5.582453250885012	0	0	5.543857097625734	-4.270681381225588	-6.741910934448246	-1.609354972839356	4.270681381225588	6.741910934448246	-1.609354972839356	0.9353473186492924	1.528235435485841	-23.38043975830079	0.217920020222664	-1.897234201431275	-90.327018737793	0	0.8189622759819035	0	0	-0.6903278827667239	0	0	0.02160554751753808	0	0	0.1505193859338761	0	0	0.003665272612124683	0	0	0.0240906421095133	0	nan	nan	nan	nan	nan	nan	-0.03032947704195978	0.06772024929523471	-0.2645165920257569	-0.002460940275341273	-0.001264355727471412	-0.1492308527231217	0.06394422799348834	0.5717588067054751	-0.2806292474269868	-0.2070321440696717	0.5729497075080874	-0.2322676181793214	0.2291566133499147	1.831227779388429	-0.09773077815771108	0.07433996349573138	1.982222557067872	0.06559126079082492	nan	nan	nan	-4.926429595075159e-15	0.1858383417129517	-58.02567291259768	3.730349246273498e-16	1.023331046104432	-19.5558090209961	-2.114342212677003	0.6119062304496767	10.59227561950684	-33.76067352294923	-0.6043320894241335	156.4461364746094	-49.9042663574219	1.879785776138307	73.23992156982425	-104.3636779785157	59.88195419311526	-242.238006591797	
320	3.19	156.1556701660157	914.3706665039067	-2719.173828125001	141.6540222167969	916.904907226563	-2847.257080078126	28.38986206054689	904.665649414063	-2704.900146484376	146.7947082519532	1042.90625	-2715.570800781251	27.2374782562256	478.9913635253909	-2709.887695312501	-31.1840229034424	485.6006164550784	-3141.336425781252	-399.3340148925784	543.7193603515627	-2651.135009765626	92.26445770263675	909.539184570313	-2712.097412109376	41.13663482666017	272.5829467773439	-2316.857421875001	70.35350036621097	-101.2602539062501	-2514.222656250001	-381.3984680175782	240.5526733398439	-2318.736328125001	27.8760108947754	469.5110473632815	-2691.835937500001	29.50972938537599	124.5835876464844	-2364.468261718751	28.21446609497072	209.9716796875001	-2564.764892578126	-188.2006378173829	120.8895721435547	-2364.635253906251	26.04621887207033	324.8501892089845	-2279.070556640626	30.6642246246338	57.82804870605472	-2392.934326171876	30.23248672485353	86.29083251953128	-2459.699707031251	-41.90589904785158	56.59671783447268	-2392.989990234376	29.50971984863283	124.583610534668	-2364.468261718751	207.9960327148439	523.9378051757815	-2874.216796875001	156.2374420166016	672.230895996094	-3266.139160156252	-210.870086669922	516.9853515625002	-2821.530517578126	220.0469360351564	919.202026367188	-2726.250732421876	194.9956359863282	85.80073547363284	-2828.438720703126	163.5905151367188	43.12513732910158	-3245.802734375002	-224.3609008789064	101.3744430541993	-2798.476074218751	207.4060516357423	504.0548095703127	-2872.139160156251	214.222625732422	72.166862487793	-2982.395263671876	215.9544677734376	289.6856384277345	-2981.436767578126	-3.175430297851564	73.92991638183597	-2989.696533203126	206.9139404296876	71.26702880859378	-2764.992187500001	216.6588287353517	72.46678161621097	-3054.863037109376	217.2362365722657	144.9730529785157	-3054.543457031251	144.1928100585938	73.05459594726565	-3057.296630859376	214.2227325439454	72.16679382324222	-2982.395263671876	37.10903549194337	1003.958923339844	-2751.369873046876	250.5037689208986	1020.168273925782	-2775.209960937501	220.4764099121095	1009.361083984375	-2573.533203125001	-42.8945655822754	701.1619262695315	-2696.987792968751	-29.5817222595215	487.6130676269534	-2702.061767578126	-30.39874649047853	361.1114807128907	-2495.135009765626	-4.232755184173586	269.1437377929689	-2317.058837890626	42.52233123779298	312.4902954101564	-2256.977294921876	39.54586791992189	103.2543945312501	-2345.647949218751	334.484100341797	785.9719238281255	-2791.774169921876	264.5427246093751	524.876403808594	-2881.329101562501	275.9341125488282	364.495330810547	-2863.025634765626	241.3456115722657	84.07942962646487	-2831.750488281251	190.9474792480469	55.09007644653323	-2758.496826171876	205.0767974853517	52.84573745727542	-2984.561767578126	107.4038009643555	1006.801574707032	-2564.301269531251	-12.88444805145264	-1.300161123275757	-0.4513832926750185	-1.126505851745606	15.16391468048096	62.65071105957034	0	0	-4.638562202453615	1.12659764289856	-3.175746202468874	-4.64570188522339	3.437234163284304	-0.4433231353759768	19.48508262634278	3.3591845035553	-2.759723186492921	26.2780227661133	1.693628430366517	-5.999217033386232	6.287374496459964	0	0	6.252821445465091	-4.163743972778322	-6.475498676300052	-1.605667710304261	4.163743972778322	6.475498676300052	-1.605667710304261	0.3408964574337007	0.9114083051681523	-23.0943832397461	0.4564555585384371	-1.925413727760316	-90.23712921142581	0	0.7045244574546816	0	0	-0.6370068192481997	0	0	0.02963035181164743	0	0	0.120571255683899	0	0	0.003136936109513046	0	0	0.0203204806894064	0	nan	nan	nan	nan	nan	nan	-0.03150224685668947	0.08661073446273806	-0.2204836905002595	0.0001358563458779827	-0.001802632817998529	-0.1439406722784043	0.05939463153481486	0.5742136836051943	-0.2651770412921907	-0.1982912272214891	0.4463569819927218	-0.1980733126401902	0.2080612033605577	1.803373336791993	-0.05801773443818095	0.07092503458261493	1.846464633941651	-0.00125215167645365	nan	nan	nan	9.473903637570559e-16	-1.433905959129334	-49.94873809814456	-1.191639407998767e-15	0.3264124095439912	-17.61037063598634	-3.979899406433107	0.008552128449082378	5.830588817596437	-28.37503051757814	-2.631711721420289	166.1466369628907	-47.98537063598634	1.959385871887208	57.31356048583987	-95.9352951049805	60.33853530883792	-202.4928283691407	
321	3.2	157.2077636718751	917.5857543945317	-2733.280517578126	143.3772583007813	920.125122070313	-2861.437744140626	29.34185028076173	908.258911132813	-2719.666259765626	148.2047119140626	1046.1494140625	-2729.761474609376	27.93552398681642	483.1372985839846	-2738.423095703126	-27.65904235839845	503.5064697265627	-3169.279296875002	-398.4255981445315	546.340515136719	-2680.420654296876	93.26687622070315	912.9433593750005	-2726.533447265626	41.40629196166994	279.4915771484376	-2344.853759765626	78.58180236816409	-94.16668701171878	-2539.469482421876	-379.7001037597657	240.5761566162111	-2350.576660156251	28.55546951293947	473.766784667969	-2720.313232421876	27.88279151916505	131.8143157958985	-2392.961914062501	28.51164627075197	217.8181152343751	-2592.998046875001	-189.8558959960938	131.1702728271485	-2393.923339843751	26.91138648986818	331.8504638671876	-2306.961181640626	28.20660972595216	65.13562774658206	-2421.628662109376	28.41631317138673	93.80342864990237	-2488.307373046876	-44.37294769287111	64.92096710205081	-2421.949218750001	27.88278961181642	131.8142700195313	-2392.961914062501	208.8413696289064	523.830749511719	-2880.233398437501	158.5205993652344	664.480407714844	-3275.473876953127	-210.4985656738282	518.645446777344	-2828.689697265626	221.1486663818361	922.2280273437505	-2740.027343750001	195.1535034179689	85.97365570068362	-2829.094726562501	169.8785095214844	37.99819183349611	-3246.634033203127	-224.9297790527345	101.8625793457032	-2805.491455078126	208.2206573486329	503.9754333496096	-2877.914306640626	214.4116973876954	72.11832427978518	-2983.027099609376	216.9501800537111	289.6300659179689	-2982.279541015626	-2.974395751953126	74.68083953857425	-2990.446289062501	206.9841613769532	71.45791625976565	-2765.626953125001	216.8875427246095	72.33850097656253	-3055.493896484376	217.733612060547	144.8424377441407	-3055.244628906251	144.4255065917969	73.19258117675784	-3057.967041015626	214.4116516113282	72.11830139160159	-2983.027343750001	38.58356857299806	1007.512023925782	-2766.116455078126	252.1630859375001	1023.091003417969	-2788.856933593751	221.0029449462892	1012.697692871094	-2587.571777343751	-41.79845428466798	704.7796020507815	-2718.946777343751	-28.92499160766603	491.5662231445315	-2730.687744140626	-29.95376777648927	365.9009399414064	-2524.389404296876	-3.896511077880861	275.3050231933595	-2345.469482421876	43.3185272216797	318.2273864746095	-2285.274902343751	37.53086471557619	109.4119873046876	-2374.323242187501	335.3303527832032	787.4006347656255	-2802.543701171876	265.4113159179689	524.5302734375002	-2887.186523437501	276.6169738769532	364.3511047363282	-2866.011474609376	241.5471954345704	84.21889495849612	-2831.701171875001	190.9698486328126	55.11907958984378	-2758.393798828126	205.140838623047	53.00928115844729	-2984.331542968751	107.9395141601563	1009.941833496094	-2578.723876953126	-12.5675859451294	-1.102313280105591	1.398790121078492	-1.252165794372559	16.02152633666993	64.83498382568362	0	0	-4.100256919860842	1.540684461593629	-4.900855064392092	-4.115364074707033	3.558002233505251	-0.2723422348499299	18.36137771606446	3.275015592575075	-3.445368051528932	25.84556770324708	1.512301802635194	-5.162368774414064	6.91769361495972	0	0	6.889472007751468	-4.004279136657717	-6.173356533050541	-1.567819118499757	4.004279136657717	6.173356533050541	-1.567819118499757	-0.1655274331569672	0.2556237876415254	-23.26410102844239	0.6689800620079043	-1.956766963005067	-90.17407989501956	0	0.5674834251403811	0	0	-0.5382568240165713	0	0	0.02683254890143873	0	0	0.09640793502330786	0	0	-0.0002095583186019213	0	0	0.01725550740957261	0	nan	nan	nan	nan	nan	nan	-0.03443267568945886	0.09741067141294485	-0.1788616627454758	0.001820280216634274	-0.002886751666665078	-0.1410255134105683	0.05150008946657184	0.5773349404335024	-0.2528483569622041	-0.1849333941936493	0.3325702250003816	-0.1686058640480042	0.1779890507459641	1.768086791038514	-0.03227348625659944	0.06398226320743564	1.703999757766725	-0.05975015833973887	nan	nan	nan	3.410605055415517e-15	-3.601478099823	-41.99630737304689	7.039738999629369e-16	-0.1354686468839646	-16.23382949829102	-5.051492214202883	-0.3839220106601717	1.001078367233277	-23.20580863952637	-4.97391986846924	168.6430358886719	-42.77053451538087	1.894005179405213	45.90959548950197	-87.06966400146487	58.75369262695315	-160.4959564208985	
322	3.21	158.1255187988282	920.9465942382817	-2747.149658203126	145.0571899414063	923.4318237304692	-2875.387939453126	30.14757537841798	912.1132202148442	-2734.279052734376	149.587387084961	1049.546142578125	-2743.787353515626	28.91335105895998	487.9157714843752	-2766.455078125001	-22.70604133605958	521.5279541015627	-3196.392578125002	-397.3764648437502	549.4201660156252	-2710.465332031251	94.12903594970706	916.5508422851567	-2740.774658203126	41.92358398437501	284.984100341797	-2373.575683593751	85.34194946289065	-87.36273193359378	-2567.339599609376	-377.638641357422	240.7260894775392	-2382.542236328126	29.51329803466798	478.5578918457034	-2748.338134765626	26.52353477478029	137.9779052734376	-2423.152343750001	28.73048210144044	225.9118041992189	-2622.336181640626	-191.2017059326172	140.267074584961	-2424.554199218751	28.05149841308595	337.1608276367189	-2335.201904296876	26.01421928405763	71.58356475830081	-2452.469238281251	26.74986839294435	100.8948974609376	-2518.863769531251	-46.56085205078126	72.34661865234378	-2452.936523437501	26.52353858947755	137.9779052734376	-2423.152343750001	209.6174774169923	523.766052246094	-2885.571044921876	160.9187011718751	656.3591308593752	-3284.198242187502	-210.2969818115236	520.3472900390627	-2835.408935546876	222.1220092773439	925.3423461914067	-2753.524658203126	195.3129425048829	86.1235275268555	-2829.727539062501	176.6392822265626	33.43553161621095	-3247.426513671877	-225.4742889404298	102.0216293334962	-2812.921142578126	208.9693603515626	503.9372863769534	-2883.040527343751	214.6046752929689	72.07570648193362	-2983.638427734376	217.8452606201173	289.5786132812501	-2983.073486328126	-2.768218994140626	75.33391571044925	-2991.171386718751	207.0641174316407	71.62339782714847	-2766.241943359376	217.1181488037111	72.22651672363284	-3056.104248046876	218.1983642578126	144.7275390625001	-3055.916015625001	144.6604919433594	73.31260681152347	-3058.615234375001	214.6046142578126	72.07575988769534	-2983.638671875001	40.0408058166504	1011.292602539063	-2780.754882812501	253.7987670898439	1026.046752929688	-2802.252197265626	221.3383331298829	1016.19921875	-2601.425781250001	-40.70177459716798	708.9033203125002	-2740.820312500001	-28.01325798034669	496.1290588378909	-2758.978271484376	-29.25580978393556	370.454071044922	-2553.769042968751	-3.315149068832399	280.2120361328126	-2374.542480468751	44.36658096313478	322.0986633300782	-2313.818603515626	35.80771636962892	114.6254043579102	-2404.832275390626	336.0427856445314	788.8366699218755	-2812.846679687501	266.2132263183595	524.226745605469	-2892.331542968751	277.2673339843751	364.2897949218751	-2868.479003906251	241.7428283691407	84.36931610107425	-2831.582031250001	190.9887237548829	55.17099380493167	-2758.294433593751	205.2206573486329	53.16904449462893	-2984.119140625001	108.2836227416993	1013.357543945313	-2593.054199218751	-12.16705894470216	-0.8119698166847233	3.22582006454468	-1.183907151222229	16.57024002075196	66.67990875244143	0	0	-3.479849815368654	1.902738571166993	-6.401833057403568	-3.501712560653688	3.625721931457521	-0.07313096523284915	17.20844268798829	3.164065122604372	-4.167098045349123	25.27728080749513	1.318649768829346	-4.266143798828127	7.468230247497562	0	0	7.447411060333256	-3.797185182571413	-5.83046340942383	-1.497695446014405	3.797185182571413	5.83046340942383	-1.497695446014405	-0.5807765722274782	-0.4020608961582186	-23.82414627075196	0.8541148900985722	-1.986498832702638	-90.11924743652347	0	0.4285095036029818	0	0	-0.4157421588897707	0	0	0.01922410540282727	0	0	0.07584008574485782	0	0	-0.004823894239962103	0	0	0.01466719247400761	0	nan	nan	nan	nan	nan	nan	-0.03834624215960504	0.1010391563177109	-0.1420561969280243	0.002762821735814215	-0.003682553768157961	-0.1397609263658524	0.04186786338686944	0.5801606178283694	-0.2409813553094865	-0.1683480292558671	0.2364741116762162	-0.1444376707077027	0.1436395347118378	1.724382996559144	-0.01406783983111382	0.05499509349465373	1.558953762054444	-0.1039716303348542	nan	nan	nan	-3.789561455028224e-15	-6.02939605712891	-34.7793312072754	1.773627593365079e-15	-0.3901608586311343	-15.35063838958741	-5.500872135162355	-0.5887150764465334	-3.146520376205446	-18.45351791381837	-7.402804374694828	165.0937652587891	-35.55100250244142	1.772075772285462	36.69227981567384	-78.11757659912112	55.29797363281253	-120.6062622070313	
